<svg width="600" height="300" viewBox="0 0 600 300" fill="none" xmlns="http://www.w3.org/2000/svg">
<g clip-path="url(#clip0_17_30)">
<rect width="600" height="300" fill="#207FED"/>
<path d="M300 -229C509.316 -229 679 -59.3159 679 150C679 359.316 509.316 529 300 529C90.6841 529 -79 359.316 -79 150C-79 -59.3159 90.6841 -229 300 -229ZM300 -189C112.775 -189 -39 -37.2245 -39 150C-39 337.225 112.775 489 300 489C487.225 489 639 337.225 639 150C639 -37.2245 487.225 -189 300 -189ZM300 -149C465.133 -149 599 -15.1331 599 150C599 315.133 465.133 449 300 449C134.867 449 1 315.133 1 150C1 -15.1331 134.867 -149 300 -149ZM300 -109C156.958 -109 41 6.95825 41 150C41 293.042 156.958 409 300 409C443.042 409 559 293.042 559 150C559 6.95825 443.042 -109 300 -109ZM300 -70C421.503 -70 520 28.4973 520 150C520 271.503 421.503 370 300 370C178.497 370 80 271.503 80 150C80 28.4973 178.497 -70 300 -70ZM300 -30C200.589 -30 120 50.5887 120 150C120 249.411 200.589 330 300 330C399.411 330 480 249.411 480 150C480 50.5887 399.411 -30 300 -30ZM300 10C377.32 10 440 72.6801 440 150C440 227.32 377.32 290 300 290C222.68 290 160 227.32 160 150C160 72.6801 222.68 10 300 10ZM300 50C244.772 50 200 94.7715 200 150C200 205.228 244.772 250 300 250C355.228 250 400 205.228 400 150C400 94.7715 355.228 50 300 50ZM300 90C333.137 90 360 116.863 360 150C360 183.137 333.137 210 300 210C266.863 210 240 183.137 240 150C240 116.863 266.863 90 300 90ZM300 130C288.954 130 280 138.954 280 150C280 161.046 288.954 170 300 170C311.046 170 320 161.046 320 150C320 138.954 311.046 130 300 130Z" fill="url(#paint0_radial_17_30)"/>
<path d="M255 155H153L147 161H123L117 155H105V95C105 95 121 79 153 79C185 79 201 95 201 95H255V155Z" fill="#FFC400"/>
<path d="M255 155V157H257V155H255ZM153 155V153H152.172L151.586 153.586L153 155ZM147 161V163H147.828L148.414 162.414L147 161ZM123 161L121.586 162.414L122.172 163H123V161ZM117 155L118.414 153.586L117.828 153H117V155ZM105 155H103V157H105V155ZM105 95L103.586 93.5858L103 94.1716V95H105ZM201 95L199.586 96.4142L200.172 97H201V95ZM255 95H257V93H255V95ZM255 155V153H153V155V157H255V155ZM153 155L151.586 153.586L145.586 159.586L147 161L148.414 162.414L154.414 156.414L153 155ZM147 161V159H123V161V163H147V161ZM123 161L124.414 159.586L118.414 153.586L117 155L115.586 156.414L121.586 162.414L123 161ZM117 155V153H105V155V157H117V155ZM105 155H107V95H105H103V155H105ZM105 95C106.414 96.4142 106.414 96.4148 106.413 96.4154C106.413 96.4155 106.412 96.416 106.412 96.4162C106.412 96.4167 106.412 96.4169 106.412 96.4168C106.412 96.4167 106.413 96.4157 106.415 96.4137C106.419 96.4097 106.427 96.402 106.438 96.3906C106.462 96.3678 106.501 96.3304 106.555 96.2794C106.664 96.1774 106.835 96.0209 107.067 95.8177C107.532 95.4112 108.243 94.8181 109.2 94.1C111.115 92.6637 114.013 90.7293 117.894 88.7889C125.65 84.9111 137.346 81 153 81V79V77C136.654 77 124.35 81.0889 116.106 85.2111C111.987 87.2707 108.885 89.3363 106.8 90.9C105.757 91.6819 104.968 92.3388 104.433 92.8073C104.165 93.0416 103.961 93.2289 103.82 93.3612C103.749 93.4274 103.694 93.4799 103.655 93.5176C103.636 93.5365 103.62 93.5517 103.609 93.5631C103.603 93.5688 103.598 93.5736 103.594 93.5773C103.592 93.5792 103.591 93.5809 103.589 93.5823C103.589 93.583 103.588 93.5839 103.587 93.5842C103.587 93.585 103.586 93.5858 105 95ZM153 79V81C168.654 81 180.35 84.9111 188.106 88.7889C191.987 90.7293 194.885 92.6637 196.8 94.1C197.757 94.8181 198.468 95.4112 198.933 95.8177C199.165 96.0209 199.336 96.1774 199.445 96.2794C199.499 96.3304 199.538 96.3678 199.562 96.3906C199.573 96.402 199.581 96.4097 199.585 96.4137C199.587 96.4157 199.588 96.4167 199.588 96.4168C199.588 96.4169 199.588 96.4167 199.588 96.4162C199.588 96.416 199.587 96.4155 199.587 96.4154C199.586 96.4148 199.586 96.4142 201 95C202.414 93.5858 202.413 93.585 202.413 93.5842C202.412 93.5839 202.411 93.583 202.411 93.5823C202.409 93.5809 202.408 93.5792 202.406 93.5773C202.402 93.5736 202.397 93.5688 202.391 93.5631C202.38 93.5517 202.364 93.5365 202.345 93.5176C202.306 93.4799 202.251 93.4274 202.18 93.3612C202.039 93.2289 201.835 93.0416 201.567 92.8073C201.032 92.3388 200.243 91.6819 199.2 90.9C197.115 89.3363 194.013 87.2707 189.894 85.2111C181.65 81.0889 169.346 77 153 77V79ZM201 95V97H255V95V93H201V95ZM255 95H253V155H255H257V95H255Z" fill="#896900"/>
<path d="M495 215H153L147 221H123L117 215H105V155H117L123 161H147L153 155H495V215Z" fill="#FF0084"/>
<path d="M495 215V217H497V215H495ZM153 215V213H152.172L151.586 213.586L153 215ZM147 221V223H147.828L148.414 222.414L147 221ZM123 221L121.586 222.414L122.172 223H123V221ZM117 215L118.414 213.586L117.828 213H117V215ZM105 215H103V217H105V215ZM105 155V153H103V155H105ZM117 155L118.414 153.586L117.828 153H117V155ZM123 161L121.586 162.414L122.172 163H123V161ZM147 161V163H147.828L148.414 162.414L147 161ZM153 155V153H152.172L151.586 153.586L153 155ZM495 155H497V153H495V155ZM495 215V213H153V215V217H495V215ZM153 215L151.586 213.586L145.586 219.586L147 221L148.414 222.414L154.414 216.414L153 215ZM147 221V219H123V221V223H147V221ZM123 221L124.414 219.586L118.414 213.586L117 215L115.586 216.414L121.586 222.414L123 221ZM117 215V213H105V215V217H117V215ZM105 215H107V155H105H103V215H105ZM105 155V157H117V155V153H105V155ZM117 155L115.586 156.414L121.586 162.414L123 161L124.414 159.586L118.414 153.586L117 155ZM123 161V163H147V161V159H123V161ZM147 161L148.414 162.414L154.414 156.414L153 155L151.586 153.586L145.586 159.586L147 161ZM153 155V157H495V155V153H153V155ZM495 155H493V215H495H497V155H495Z" fill="#890047"/>
<rect x="131" y="121" width="98" height="8" rx="4" fill="black"/>
<rect x="131" y="181" width="260" height="8" rx="4" fill="black"/>
<rect x="407" y="169" width="64" height="32" rx="16" fill="white" stroke="#890047" stroke-width="4"/>
<rect x="419" y="181" width="40" height="8" rx="4" fill="black"/>
</g>
<defs>
<radialGradient id="paint0_radial_17_30" cx="0" cy="0" r="1" gradientUnits="userSpaceOnUse" gradientTransform="translate(300 150) rotate(90) scale(379)">
<stop stop-color="white" stop-opacity="0.05"/>
<stop offset="1" stop-color="white" stop-opacity="0.2"/>
</radialGradient>
<clipPath id="clip0_17_30">
<rect width="600" height="300" fill="white"/>
</clipPath>
</defs>
</svg>
